<?xml version="1.0" standalone="no"?>
<!DOCTYPE svg PUBLIC "-//W3C//DTD SVG 20010904//EN"
 "http://www.w3.org/TR/2001/REC-SVG-20010904/DTD/svg10.dtd">
<svg version="1.0" xmlns="http://www.w3.org/2000/svg"
 width="826.000000pt" height="826.000000pt" viewBox="0 0 826.000000 826.000000"
 preserveAspectRatio="xMidYMid meet">
<metadata>
Created by potrace 1.14, written by Peter Selinger 2001-2017
</metadata>
<g transform="translate(0.000000,826.000000) scale(0.100000,-0.100000)"
fill="#000000" stroke="none">
<path d="M3485 7962 c-3 -3 -20 -6 -37 -8 -18 -1 -46 -5 -63 -8 -16 -4 -46 -9
-65 -12 -94 -14 -286 -72 -435 -130 -11 -4 -22 -8 -25 -9 -3 -1 -23 -10 -45
-20 -22 -10 -42 -19 -45 -20 -16 -3 -167 -82 -178 -92 -8 -7 -18 -11 -23 -8
-5 4 -9 2 -9 -2 0 -5 -25 -22 -55 -38 -30 -15 -55 -32 -55 -37 0 -4 -7 -8 -15
-8 -8 0 -15 -4 -15 -8 0 -5 -12 -15 -27 -23 -16 -8 -38 -24 -51 -36 -13 -13
-26 -23 -31 -23 -4 0 -16 -8 -27 -17 -36 -34 -93 -73 -103 -73 -6 0 -11 -4
-11 -9 0 -4 -27 -27 -61 -51 -33 -23 -71 -53 -84 -66 -13 -13 -28 -24 -34 -24
-5 0 -11 -3 -13 -8 -1 -4 -16 -18 -33 -31 -88 -68 -285 -256 -365 -350 -25
-29 -51 -59 -57 -66 -7 -7 -13 -17 -13 -21 0 -4 -11 -17 -24 -29 -14 -13 -22
-26 -19 -29 4 -3 1 -6 -5 -6 -7 0 -12 -7 -12 -15 0 -8 -4 -15 -10 -15 -5 0
-10 -5 -10 -11 0 -6 -6 -17 -12 -24 -30 -33 -35 -42 -50 -90 -24 -78 -23 -122
5 -159 20 -25 31 -31 58 -30 19 1 36 2 39 3 11 5 36 11 68 17 17 4 32 11 32
16 0 5 4 7 9 4 5 -4 22 -1 38 6 15 6 31 12 36 13 4 2 9 4 12 5 6 3 8 3 50 15
17 4 40 14 52 21 13 8 23 12 23 10 0 -6 35 5 155 49 55 20 107 38 115 40 8 2
15 4 15 5 0 1 7 3 15 5 8 2 58 14 110 28 285 75 501 66 695 -29 90 -44 163
-147 185 -262 12 -58 9 -173 -5 -232 -3 -14 -8 -34 -10 -46 -3 -12 -11 -40
-19 -63 -9 -22 -12 -41 -8 -41 4 0 1 -4 -5 -8 -7 -5 -14 -20 -15 -35 -1 -15
-6 -27 -10 -27 -4 0 -8 -4 -8 -9 0 -5 -4 -20 -9 -33 -5 -13 -10 -27 -11 -33
-1 -5 -11 -27 -21 -47 -10 -21 -19 -43 -19 -49 0 -7 -8 -21 -17 -32 -13 -15
-14 -18 -3 -12 12 7 13 6 3 -6 -6 -8 -24 -50 -39 -94 -26 -76 -28 -90 -30
-295 -4 -251 -14 -445 -24 -445 -1 0 -3 -22 -4 -50 -2 -27 -4 -50 -5 -50 -2 0
-5 -20 -7 -45 -3 -25 -6 -58 -8 -75 -2 -16 -6 -37 -9 -45 -7 -17 -14 -52 -23
-120 -3 -25 -10 -47 -15 -48 -5 -2 -7 -7 -5 -11 3 -4 0 -25 -5 -47 -5 -21 -12
-50 -15 -64 -2 -14 -7 -32 -11 -40 -3 -8 -7 -20 -8 -26 -2 -6 -11 -38 -21 -70
-9 -33 -18 -63 -19 -69 -2 -5 -19 -53 -39 -105 -20 -52 -39 -102 -41 -110 -2
-8 -4 -16 -5 -17 -2 -2 -3 -8 -4 -13 0 -6 -5 -14 -11 -18 -5 -4 -11 -14 -13
-22 -2 -8 -13 -35 -25 -60 -11 -25 -21 -47 -22 -50 -2 -15 -32 -59 -59 -89
-17 -18 -39 -41 -48 -51 -9 -10 -24 -30 -33 -44 -10 -14 -21 -23 -26 -20 -5 3
-9 1 -9 -5 0 -20 -54 -72 -112 -107 -57 -35 -68 -38 -147 -40 -98 -3 -267 -12
-326 -19 -22 -2 -71 -7 -109 -10 -38 -4 -79 -9 -90 -11 -25 -5 -70 -13 -111
-19 -16 -2 -43 -7 -60 -11 -16 -3 -39 -7 -50 -9 -11 -1 -20 -4 -20 -5 0 -1
-13 -4 -30 -6 -33 -4 -70 -11 -70 -15 0 -1 -11 -3 -23 -4 -23 -2 -54 -11 -151
-41 -24 -7 -47 -11 -52 -8 -5 3 -9 0 -9 -5 0 -6 -11 -11 -25 -11 -14 0 -25 -4
-25 -8 0 -4 -10 -9 -23 -10 -13 -1 -49 -13 -80 -27 -31 -13 -60 -26 -65 -26
-31 -8 -42 -12 -42 -18 0 -4 -9 -7 -19 -8 -28 -2 -249 -114 -278 -141 -14 -13
-28 -21 -31 -18 -3 3 -11 -3 -19 -14 -8 -11 -18 -20 -24 -20 -14 0 -105 -97
-160 -170 -27 -36 -53 -70 -58 -76 -5 -6 -12 -21 -16 -35 -4 -13 -11 -26 -15
-29 -3 -3 -17 -27 -29 -55 -12 -27 -29 -62 -37 -77 -8 -16 -13 -28 -9 -28 3 0
-1 -13 -10 -30 -12 -23 -15 -68 -15 -220 l0 -192 37 -79 c20 -43 40 -79 45
-79 5 0 6 -4 3 -10 -3 -5 -1 -10 5 -10 6 0 8 -4 5 -10 -3 -5 1 -10 9 -10 9 0
15 -3 14 -7 -5 -13 55 -102 64 -97 4 3 8 0 8 -7 0 -6 34 -45 75 -86 41 -40 75
-71 75 -67 0 4 8 -2 17 -12 24 -25 108 -84 122 -84 5 0 14 -8 20 -18 5 -9 12
-16 15 -15 10 4 40 -10 60 -29 10 -9 23 -15 28 -12 4 3 8 1 8 -3 0 -5 17 -15
37 -22 76 -27 203 -92 228 -117 14 -14 25 -22 25 -19 0 4 12 -2 28 -12 47 -33
207 -101 252 -108 3 0 55 -17 115 -37 234 -77 327 -106 425 -133 3 -1 25 -7
50 -15 25 -7 54 -15 65 -17 11 -2 31 -7 45 -13 22 -8 113 -26 180 -35 14 -2
25 -4 25 -5 0 -1 7 -3 15 -5 8 -1 42 -8 74 -15 33 -7 69 -13 80 -14 12 -2 35
-10 51 -19 33 -16 103 -33 120 -28 6 2 20 5 32 7 12 2 33 8 45 13 13 4 32 7
43 5 11 -2 40 -6 65 -9 25 -3 59 -8 75 -11 17 -2 55 -9 85 -13 30 -5 62 -9 70
-10 8 0 33 -2 55 -5 277 -37 569 -38 943 -1 28 3 78 7 110 10 31 3 68 8 82 10
39 7 111 17 150 20 19 2 35 4 35 5 0 1 12 4 28 6 15 2 39 6 55 8 15 2 27 5 27
6 0 1 11 3 25 4 22 2 63 8 135 22 21 4 110 20 160 29 17 2 41 7 55 10 14 3 36
8 50 11 14 2 48 9 75 15 28 6 61 13 75 15 14 3 70 14 125 26 55 11 106 21 113
21 6 0 12 4 12 9 0 5 4 7 9 4 5 -4 38 0 73 8 34 8 74 17 88 20 36 7 71 15 105
23 17 4 35 7 40 8 6 0 37 7 70 14 33 8 71 15 85 16 14 2 27 4 30 5 3 1 10 3
15 5 6 1 12 3 15 4 3 1 15 4 28 7 12 2 32 6 45 8 12 3 22 5 22 6 0 3 41 11 58
11 9 0 17 3 17 7 0 4 10 9 23 10 13 1 62 11 108 22 46 12 98 24 114 27 46 8
60 11 60 13 0 2 15 5 55 13 14 3 45 10 70 17 25 7 56 14 70 16 14 3 34 8 45
11 11 4 26 8 34 9 7 2 36 8 65 15 28 7 53 14 56 14 59 12 126 30 130 34 3 3
10 6 15 6 25 1 131 29 143 38 7 5 15 7 19 4 3 -4 12 -2 20 4 7 6 13 8 13 4 0
-4 7 -2 15 5 8 7 15 10 15 6 0 -3 12 -1 28 5 15 6 36 13 47 15 20 3 284 89
315 101 8 4 17 7 20 8 3 1 16 6 30 12 14 6 50 19 80 31 139 52 471 208 478
225 2 4 9 7 16 7 7 0 22 9 34 20 12 12 22 18 22 16 0 -8 108 62 143 93 30 26
65 63 106 110 19 22 21 37 21 163 l0 139 -46 92 c-71 141 -107 188 -220 282
-32 27 -61 52 -64 55 -14 16 -176 113 -246 148 -92 46 -200 93 -224 98 -3 0
-12 3 -20 7 -63 25 -250 78 -250 70 0 -3 -7 0 -15 7 -8 7 -15 10 -15 7 0 -7
-135 29 -162 44 -13 7 -24 12 -25 11 -2 -1 -4 -2 -5 -1 -2 0 -10 2 -18 4 -8 2
-46 11 -85 20 -89 21 -114 27 -145 30 -14 2 -25 4 -25 5 0 1 -16 4 -36 5 -20
1 -48 5 -61 8 -22 6 -61 12 -153 23 -16 2 -46 5 -65 8 -19 3 -53 7 -75 10
-136 19 -282 52 -272 62 3 3 -4 33 -15 67 -24 72 -57 191 -64 227 -2 14 -7 32
-11 40 -3 8 -8 26 -10 40 -2 14 -6 32 -10 40 -3 8 -8 26 -10 40 -2 14 -8 36
-13 50 -5 14 -11 39 -14 55 -2 17 -5 30 -6 30 -2 0 -5 16 -14 60 -6 33 -16 74
-20 90 -3 11 -15 69 -21 100 -2 11 -4 20 -5 20 -2 0 -5 14 -13 60 -14 74 -18
93 -27 135 -6 25 -12 56 -14 70 -3 14 -5 25 -6 25 -1 0 -3 9 -5 20 -2 11 -9
49 -16 85 -6 36 -16 70 -20 76 -5 6 -7 13 -4 16 3 3 0 29 -6 57 -6 29 -12 60
-14 69 -2 9 -4 19 -5 22 -1 3 -2 9 -1 14 1 5 -1 16 -5 25 -4 9 -9 27 -11 41
-2 14 -11 57 -20 95 -8 39 -17 79 -18 90 -2 11 -4 20 -5 20 -1 0 -3 9 -5 20
-2 11 -9 43 -15 70 -6 28 -12 58 -13 68 -1 9 -5 17 -10 17 -4 0 -6 4 -3 8 2 4
-6 48 -19 97 -14 50 -24 91 -25 93 0 1 0 3 -1 5 0 1 -2 13 -5 27 -2 14 -7 32
-11 40 -3 8 -8 24 -10 35 -2 11 -8 31 -13 45 -5 14 -12 36 -14 50 -3 14 -5 26
-7 28 -1 1 -3 7 -4 12 -1 6 -3 11 -5 13 -1 1 -3 10 -5 19 -4 21 -53 175 -65
203 -4 11 -23 63 -41 115 -18 52 -36 100 -41 106 -4 6 -5 14 -1 17 3 4 2 7 -4
7 -5 0 -10 6 -10 13 0 6 -10 33 -21 59 -12 26 -22 49 -22 52 0 2 -31 70 -69
149 -41 86 -84 196 -105 269 -20 67 -43 146 -51 173 -9 28 -18 64 -21 80 -3
16 -10 35 -16 42 -6 7 -8 13 -5 13 4 0 -1 19 -9 43 -9 23 -17 50 -19 61 -3 10
-9 24 -15 30 -5 7 -8 15 -5 18 3 3 -15 54 -41 114 -25 60 -48 117 -51 127 -3
9 -9 17 -13 17 -5 0 -13 12 -19 28 -14 36 -32 63 -55 84 -10 10 -16 18 -12 18
10 0 -12 27 -89 104 -68 70 -290 226 -320 226 -8 0 -15 4 -15 8 0 5 -37 23
-82 41 -118 47 -132 52 -156 54 -12 1 -22 4 -22 8 0 3 -17 9 -37 12 -21 3 -51
9 -68 12 -16 4 -45 7 -62 8 -18 0 -33 4 -33 8 0 8 -377 9 -385 1z"/>
</g>
</svg>
