<?xml version="1.0" standalone="no"?>
<!DOCTYPE svg PUBLIC "-//W3C//DTD SVG 20010904//EN"
 "http://www.w3.org/TR/2001/REC-SVG-20010904/DTD/svg10.dtd">
<svg version="1.0" xmlns="http://www.w3.org/2000/svg"
 width="500.000000pt" height="500.000000pt" viewBox="0 0 500.000000 500.000000"
 preserveAspectRatio="xMidYMid meet">
<metadata>
Created by potrace 1.14, written by Peter Selinger 2001-2017
</metadata>
<g transform="translate(0.000000,500.000000) scale(0.100000,-0.100000)"
fill="#000000" stroke="none">
<path d="M2949 3866 c-3 -3 -25 -7 -49 -9 -54 -6 -225 -63 -260 -87 -14 -10
-45 -27 -69 -39 -44 -23 -101 -74 -101 -91 0 -6 -9 -10 -19 -10 -23 0 -74 -57
-64 -73 3 -7 3 -9 -2 -5 -19 18 -116 -186 -100 -212 3 -5 1 -11 -5 -15 -5 -3
-10 -20 -10 -36 0 -27 -2 -29 -27 -22 -16 5 -118 7 -228 7 -158 -1 -213 -5
-260 -19 -33 -9 -77 -19 -98 -22 -20 -3 -40 -9 -43 -14 -3 -5 -14 -9 -24 -9
-29 0 -224 -110 -268 -150 -12 -12 -27 -18 -32 -15 -10 6 -109 -90 -165 -160
-16 -21 -43 -42 -58 -47 -19 -7 -26 -15 -22 -26 4 -12 3 -13 -9 -3 -8 7 -19
10 -23 8 -9 -6 -66 -15 -136 -22 -25 -3 -58 -10 -74 -16 -15 -6 -28 -9 -28 -8
0 1 -24 -6 -53 -15 -31 -11 -50 -22 -46 -28 4 -7 2 -8 -4 -4 -7 4 -21 1 -33
-7 -11 -8 -29 -13 -39 -10 -10 3 -29 -2 -42 -11 -14 -9 -27 -13 -31 -10 -20
20 -296 -226 -298 -265 -1 -30 -9 -64 -18 -75 -17 -21 -40 -152 -46 -263 -7
-106 -6 -115 16 -150 33 -53 60 -83 76 -83 7 0 13 -5 13 -11 0 -17 29 -41 40
-34 6 4 9 1 8 -6 -4 -17 108 -106 142 -113 21 -4 33 -15 43 -38 20 -48 185
-213 222 -222 17 -4 38 -15 48 -23 17 -16 101 -48 149 -57 14 -2 35 -9 46 -15
28 -15 162 -63 192 -69 87 -17 260 -4 383 29 20 5 42 7 47 4 6 -3 10 -1 10 6
0 7 3 10 6 6 3 -3 26 0 50 8 24 7 41 9 38 4 -3 -5 4 -9 15 -9 11 0 28 -11 37
-25 9 -13 24 -27 35 -30 11 -4 34 -20 51 -36 37 -33 167 -104 175 -95 4 3 11
2 17 -3 11 -9 77 -32 86 -30 3 1 32 -11 65 -26 95 -42 236 -38 420 12 50 13
104 28 122 32 31 9 82 -8 111 -36 7 -6 32 -15 57 -19 25 -3 47 -10 50 -14 3
-5 24 -11 48 -15 23 -4 51 -12 61 -17 19 -10 99 -31 162 -42 63 -12 89 -19 99
-26 6 -5 39 -10 74 -12 34 -1 65 -6 67 -9 5 -8 283 -4 314 5 14 4 43 9 65 11
71 7 90 12 120 28 17 8 44 22 61 30 16 8 45 34 64 58 18 24 40 50 49 57 12 9
13 17 5 30 -12 18 -7 45 5 37 5 -2 16 1 25 8 21 15 33 134 22 212 -2 17 -5 32
-6 35 -1 3 -2 13 -1 23 1 9 -2 17 -7 17 -5 0 -9 6 -9 14 0 9 21 18 59 26 32 6
58 15 58 21 0 5 7 9 16 9 24 0 164 76 204 110 19 17 54 47 78 68 24 20 69 75
101 122 46 69 62 102 80 175 29 116 37 228 21 297 -7 29 -16 58 -20 63 -5 6
-9 13 -10 17 0 4 -16 42 -35 83 -19 42 -35 80 -35 84 0 4 -8 16 -18 27 -20 21
-22 26 -22 50 0 15 -132 151 -206 211 -66 54 -177 123 -199 123 -11 0 -28 7
-39 15 -10 7 -53 21 -95 30 l-77 17 -2 35 c-2 20 -7 44 -13 54 -5 11 -8 19 -5
19 3 0 0 13 -5 30 -6 16 -15 27 -20 24 -5 -3 -6 2 -3 11 4 8 0 22 -7 31 -7 9
-18 26 -24 38 -7 11 -16 20 -21 19 -5 -1 -10 9 -10 21 -2 34 -73 129 -174 232
-50 52 -93 94 -96 94 -3 0 -33 19 -67 43 -66 46 -110 67 -145 70 -12 1 -22 5
-22 9 0 5 -8 11 -17 15 -10 3 -47 19 -83 35 -35 17 -80 32 -100 35 -19 3 -43
10 -54 15 -14 7 -16 7 -11 -2 6 -9 3 -9 -13 -1 -20 10 -164 16 -173 7z m-1179
-1940 c0 -3 -4 -8 -10 -11 -5 -3 -10 -1 -10 4 0 6 5 11 10 11 6 0 10 -2 10 -4z
m-1200 -280 c0 -2 -7 -7 -16 -10 -8 -3 -12 -2 -9 4 6 10 25 14 25 6z"/>
</g>
</svg>
